TITLE ""
FILE "Disc6Track63.mp3" MP3
  TRACK 01 AUDIO
    TITLE "Disc6Track63_01"
    INDEX 01 00:00:00
  TRACK 02 AUDIO
    TITLE "Disc6Track63_02"
    INDEX 01 00:01:08
  TRACK 03 AUDIO
    TITLE "Disc6Track63_03"
    INDEX 01 00:03:26
  TRACK 04 AUDIO
    TITLE "Disc6Track63_04"
    INDEX 01 00:04:45
  TRACK 05 AUDIO
    TITLE "Disc6Track63_05"
    INDEX 01 00:10:44
  TRACK 06 AUDIO
    TITLE "Disc6Track63_06"
    INDEX 01 00:10:71
  TRACK 07 AUDIO
    TITLE "Disc6Track63_07"
    INDEX 01 00:12:04
  TRACK 08 AUDIO
    TITLE "Disc6Track63_08"
    INDEX 01 00:14:07
  TRACK 09 AUDIO
    TITLE "Disc6Track63_09"
    INDEX 01 00:15:12
  TRACK 10 AUDIO
    TITLE "Disc6Track63_10"
    INDEX 01 00:18:42
  TRACK 11 AUDIO
    TITLE "Disc6Track63_11"
    INDEX 01 00:18:71
  TRACK 12 AUDIO
    TITLE "Disc6Track63_12"
    INDEX 01 00:20:17
  TRACK 13 AUDIO
    TITLE "Disc6Track63_13"
    INDEX 01 00:24:25
  TRACK 14 AUDIO
    TITLE "Disc6Track63_14"
    INDEX 01 00:25:46
  TRACK 15 AUDIO
    TITLE "Disc6Track63_15"
    INDEX 01 00:30:09
  TRACK 16 AUDIO
    TITLE "Disc6Track63_16"
    INDEX 01 00:30:39
  TRACK 17 AUDIO
    TITLE "Disc6Track63_17"
    INDEX 01 00:31:64
  TRACK 18 AUDIO
    TITLE "Disc6Track63_18"
    INDEX 01 00:34:09
  TRACK 19 AUDIO
    TITLE "Disc6Track63_19"
    INDEX 01 00:35:32
  TRACK 20 AUDIO
    TITLE "Disc6Track63_20"
    INDEX 01 00:40:10
  TRACK 21 AUDIO
    TITLE "Disc6Track63_21"
    INDEX 01 00:40:43
  TRACK 22 AUDIO
    TITLE "Disc6Track63_22"
    INDEX 01 00:41:50
  TRACK 23 AUDIO
    TITLE "Disc6Track63_23"
    INDEX 01 00:43:65
  TRACK 24 AUDIO
    TITLE "Disc6Track63_24"
    INDEX 01 00:44:72
  TRACK 25 AUDIO
    TITLE "Disc6Track63_25"
    INDEX 01 00:48:15
  TRACK 26 AUDIO
    TITLE "Disc6Track63_26"
    INDEX 01 00:48:49
  TRACK 27 AUDIO
    TITLE "Disc6Track63_27"
    INDEX 01 00:49:64
  TRACK 28 AUDIO
    TITLE "Disc6Track63_28"
    INDEX 01 00:52:19
  TRACK 29 AUDIO
    TITLE "Disc6Track63_29"
    INDEX 01 00:53:34
  TRACK 30 AUDIO
    TITLE "Disc6Track63_30"
    INDEX 01 00:57:32
  TRACK 31 AUDIO
    TITLE "Disc6Track63_31"
    INDEX 01 00:57:63
  TRACK 32 AUDIO
    TITLE "Disc6Track63_32"
    INDEX 01 00:58:70
  TRACK 33 AUDIO
    TITLE "Disc6Track63_33"
    INDEX 01 01:00:20
  TRACK 34 AUDIO
    TITLE "Disc6Track63_34"
    INDEX 01 01:01:26
  TRACK 35 AUDIO
    TITLE "Disc6Track63_35"
    INDEX 01 01:05:70
  TRACK 36 AUDIO
    TITLE "Disc6Track63_36"
    INDEX 01 01:06:35
  TRACK 37 AUDIO
    TITLE "Disc6Track63_37"
    INDEX 01 01:07:54
  TRACK 38 AUDIO
    TITLE "Disc6Track63_38"
    INDEX 01 01:11:38
  TRACK 39 AUDIO
    TITLE "Disc6Track63_39"
    INDEX 01 01:12:57
  TRACK 40 AUDIO
    TITLE "Disc6Track63_40"
    INDEX 01 01:17:70
  TRACK 41 AUDIO
    TITLE "Disc6Track63_41"
    INDEX 01 01:18:24
  TRACK 42 AUDIO
    TITLE "Disc6Track63_42"
    INDEX 01 01:19:45
  TRACK 43 AUDIO
    TITLE "Disc6Track63_43"
    INDEX 01 01:20:58
  TRACK 44 AUDIO
    TITLE "Disc6Track63_44"
    INDEX 01 01:22:06
